<?xml version="1.0" encoding="UTF-8"?>
<svg width="257px" height="474px" viewBox="0 0 257 474" version="1.1" xmlns="http://www.w3.org/2000/svg" xmlns:xlink="http://www.w3.org/1999/xlink">
    <!-- Generator: Sketch 46.1 (44463) - http://www.bohemiancoding.com/sketch -->
    <title>logo</title>
    <desc>Created with Sketch.</desc>
    <defs></defs>
    <g id="Page-1" stroke="none" stroke-width="1" fill="none" fill-rule="evenodd">
        <g id="logo" transform="translate(-24.000000, -16.000000)">
            <g id="background">
                <rect id="canvas_background" x="0" y="0" width="302" height="502"></rect>
            </g>
            <g id="Layer-1" transform="translate(24.000000, 16.000000)" fill-rule="nonzero" fill="#FFFFFF">
                <path d="M161.686005,375.667053 C161.686005,391.267059 148.985993,403.867065 133.485993,403.867065 C117.886002,403.867065 105.186005,391.267059 105.186005,375.667053 C105.186005,360.067047 117.886002,347.467041 133.485993,347.467041 C148.985993,347.467041 161.686005,360.067047 161.686005,375.667053 L161.686005,375.667053 Z" id="svg_2"></path>
                <path d="M191.346281,420.515323 C195.518459,416.402514 199.433875,411.94251 203.085845,407.235536 C211.985839,395.63553 219.485839,382.535524 225.785857,368.835542 C228.065847,363.79748 230.224136,358.678282 232.250771,353.482916 C227.547426,362.036991 221.761593,369.891847 215.385834,376.935547 C210.085846,382.735535 204.385834,388.135559 198.285828,393.035553 C192.285828,397.935547 186.085846,402.535553 179.48584,406.635559 C184.98584,401.135559 190.285828,395.635559 195.285828,389.835541 C200.185852,384.135559 204.98584,378.235535 209.185852,372.035553 C217.685852,359.835541 224.285828,346.435547 227.685852,332.535553 C228.672538,328.588808 229.37312,324.610275 229.816722,320.613394 C226.332935,330.805005 221.408999,340.405366 215.385864,349.135529 C210.885864,355.635529 206.085846,361.735535 200.685852,367.235535 C195.285858,372.835541 189.48584,377.935547 183.48584,382.735535 C188.48584,376.935547 193.385834,371.035523 197.785858,364.935547 C202.185852,358.735535 206.285858,352.435547 209.785858,345.735535 C216.785858,332.635529 221.585846,318.435547 223.285858,304.035523 C224.98584,289.635529 223.585846,274.935547 219.085846,261.535523 C218.507417,259.896676 217.929017,258.350743 217.26099,256.808152 C217.337147,257.183589 217.412113,257.559386 217.48587,257.935547 C219.085876,265.535553 219.98587,273.335541 220.385864,281.035553 C220.685852,288.835541 220.385864,296.635559 219.385864,304.335541 C217.185852,319.735535 211.98587,334.535553 204.085876,347.535553 C209.48587,333.335541 212.785858,318.635559 213.185852,303.835541 C213.48587,296.435547 213.185852,289.035553 212.185852,281.735535 C211.285858,274.435547 209.785858,267.235535 207.98587,260.135559 C204.185852,245.835541 198.985839,231.935532 192.885864,218.335525 C186.98584,204.635543 180.185852,191.235519 173.48584,177.635543 C170.185852,170.935531 166.785858,164.135543 163.585846,157.135543 C160.285828,150.235534 157.185852,143.235534 154.385834,136.135543 C151.48584,128.83554 149.085846,121.33554 147.285828,113.83554 C145.385834,106.235534 144.085846,98.535537 143.285828,90.83554 C142.385834,83.135543 142.085846,75.435546 142.185852,67.735534 C142.285828,60.035537 142.685852,52.33554 143.48584,44.735538 C144.385834,37.135547 145.585846,29.535541 147.185852,22.135547 C148.785828,14.635547 150.785828,7.235538 153.285828,0.135543 L153.285859,0.135528 L153.285858,0.135529 C150.685852,15.035527 149.385864,30.135533 149.185852,45.035534 C148.885864,60.035538 149.885864,75.035538 152.385864,89.535538 C152.455378,89.9414966 152.526051,90.347146 152.597892,90.7524775 C152.593859,90.7134922 152.589844,90.6745094 152.585846,90.635529 C151.185852,75.035538 151.98584,59.335526 155.585846,44.33553 L155.585846,44.335529 C155.48584,48.235523 155.585846,52.03553 155.785828,55.835533 C155.885834,59.635528 156.185852,63.435516 156.48584,67.235519 C157.185852,74.735519 158.385834,82.235519 159.98584,89.435516 C161.061674,94.3439941 162.408766,99.1620545 164.027134,103.828886 C163.739729,101.100639 163.525963,98.3680926 163.385834,95.635544 C163.085846,87.935555 162.98584,79.935555 165.085846,72.435547 L165.085846,72.435532 L165.085846,72.435532 C164.98584,76.235535 165.48584,80.035538 166.185852,83.835534 L166.585846,86.635529 L167.185852,89.435532 C167.48584,91.235535 167.98584,93.135529 168.48584,94.93554 C170.285828,102.235535 172.48584,109.435532 175.085846,116.535538 C177.834907,124.558312 180.930205,132.45519 184.230464,140.261482 C195.256524,161.495129 205.725564,183.030532 215.98584,204.635544 C222.085846,217.635544 228.185852,230.635544 233.98584,243.735535 L242.685883,263.435547 C244.085877,266.735535 245.485871,269.935547 246.885895,273.435547 C248.285889,276.935547 249.485871,280.535553 250.585877,284.135559 C254.785859,298.435547 256.485871,313.435547 256.185883,328.335541 C255.885865,343.235535 253.685883,357.935547 249.885865,372.235535 C246.085877,386.535553 240.885865,400.435547 233.885834,413.635559 C230.385834,420.235535 226.48584,426.635559 221.585846,432.835571 C220.385834,434.335571 219.085846,435.835571 217.585846,437.335571 C216.885834,438.035522 216.085846,438.835571 215.285828,439.535522 L213.98584,440.635559 L212.885834,441.435547 C210.085846,443.735535 207.085846,445.935547 204.085846,448.035523 C191.98584,456.735505 178.385834,463.935517 163.885834,468.235505 C149.385834,472.635529 134.185852,474.135529 119.285858,473.435517 C104.485847,472.735505 89.385872,469.935517 75.385841,464.535493 C71.885841,463.235505 68.485847,461.63553 65.085853,460.035493 C61.785835,458.335542 58.485847,456.535493 55.285835,454.535493 C48.885841,450.63553 42.885841,446.235536 37.285835,441.335572 C31.685859,436.335572 26.485843,430.935548 21.885837,425.035523 C20.685855,423.535523 19.585849,422.035523 18.485843,420.435547 C17.385852,418.835571 16.385852,417.135559 15.585849,415.435547 C13.785846,412.035523 12.285846,408.635559 10.885852,405.235535 C8.085851,398.335541 5.885854,391.335541 4.285848,384.135559 C2.585849,376.935547 1.485845,369.635559 1.085851,362.335541 C0.385854,347.635559 2.285848,332.635559 8.185842,319.135559 C11.085849,312.435547 14.985843,306.135559 19.585849,300.535553 C24.185855,294.935547 29.485843,290.035553 35.285835,285.835541 C24.585849,295.335541 16.18584,307.235535 11.585849,320.535553 C6.985845,333.735535 5.985845,347.935547 7.585849,361.735535 C9.18584,375.635559 13.085849,389.235535 18.885837,401.835541 C18.9434182,401.963043 19.0013377,402.090545 19.0595886,402.218033 C17.3948153,398.167252 16.0368934,394.039768 14.985843,389.83554 C13.785846,384.935546 12.985843,380.035552 12.585849,375.135558 C11.985843,365.235534 13.18584,355.435546 15.885852,346.135558 C17.18584,341.535552 18.885837,337.035552 20.885837,332.735534 C22.885837,328.435546 25.185855,324.235534 27.785831,320.33554 C26.085849,324.735534 24.485843,329.135558 23.285831,333.635558 C21.985843,338.135558 20.985843,342.635558 20.385837,347.135558 C19.185855,356.235534 19.085849,365.33554 20.785831,374.135558 C22.0504458,381.315283 24.3468337,388.195468 27.471331,394.660703 C26.8291378,391.196632 26.4033893,387.716083 26.185855,384.235535 C25.685855,376.235535 26.185855,368.135529 27.785861,360.435547 C28.685855,356.535523 29.685855,352.735535 31.085849,349.135529 C32.585853,345.435547 34.285857,341.835541 36.885871,338.935547 C35.185859,342.435547 34.285857,346.135529 33.685859,349.835541 C33.085853,353.535523 32.785865,357.235535 32.685859,361.035523 C32.585853,368.535523 33.185859,375.935547 34.685859,383.135529 C37.685859,397.435547 43.985839,410.735535 53.585853,420.835511 C53.9575989,421.232559 54.3337011,421.624418 54.714058,422.011135 C51.8946669,418.29287 49.4381094,414.34001 47.385872,410.235535 C42.385872,400.235535 39.285858,389.535553 38.18586,378.735535 C42.285858,388.735535 46.885872,398.435547 53.085877,406.735535 C59.285859,415.135559 66.68586,422.235535 75.18586,427.435547 C75.8320558,427.838468 76.4834533,428.231564 77.1398766,428.614924 C70.7444347,423.542305 65.1523295,417.535304 60.68586,410.835572 C58.285836,407.235566 56.18586,403.435548 54.585854,399.535554 C52.885842,395.535554 51.485848,391.535554 50.785836,387.335572 C54.485848,394.935548 59.385842,401.63556 64.885842,407.535554 C70.385842,413.535585 76.585854,418.63556 83.385842,422.835572 C90.085854,427.035584 97.385842,430.235535 104.985848,432.735535 C108.785828,433.935547 112.585846,435.035584 116.48584,435.735535 C118.385834,436.235535 120.385834,436.535584 122.385834,436.935547 C124.385834,437.235535 126.285828,437.435547 128.185852,437.635559 C132.085846,438.135559 135.98584,438.235535 139.885834,437.935547 C143.685852,437.835571 147.585846,437.235535 151.285828,436.435547 C158.885834,434.735535 166.085846,431.635559 172.785828,427.435547 C179.48584,423.235535 185.585846,417.935547 191.085846,411.935547 C196.685852,405.935547 201.685852,399.335571 205.98584,392.135559 L205.98584,392.135559 C204.885834,396.135559 203.285828,400.135559 201.48584,404.035553 C199.685852,407.835571 197.585846,411.535584 195.185852,415.135559 C193.983914,416.976823 192.7035,418.772308 191.346281,420.515323 Z" id="Combined-Shape"></path>
            </g>
        </g>
    </g>
</svg>